<svg width="48" height="42" viewBox="0 0 48 42" fill="none" xmlns="http://www.w3.org/2000/svg">
<path d="M47.3815 35.0994L27.6927 2.44707C26.917 1.16073 25.5021 0.361603 23.9999 0.361603C22.4978 0.361603 21.0828 1.16073 20.307 2.44717L0.618284 35.0994C-0.183372 36.429 -0.207091 38.0948 0.556316 39.4466C1.31991 40.7985 2.7586 41.6383 4.3111 41.6383H43.6887C45.2412 41.6383 46.68 40.7985 47.4436 39.4465C48.207 38.0946 48.1833 36.4288 47.3815 35.0994Z" fill="#FF0000"/>
<path d="M24.0144 13.2192C22.8257 13.2192 21.8979 13.8571 21.8979 14.9879C21.8979 18.4381 22.3038 23.396 22.3038 26.8462C22.3039 27.745 23.0868 28.1219 24.0145 28.1219C24.7103 28.1219 25.6961 27.745 25.6961 26.8462C25.6961 23.396 26.102 18.4382 26.102 14.9879C26.102 13.8572 25.1452 13.2192 24.0144 13.2192Z" fill="white"/>
<path d="M24.0436 30.1224C22.7679 30.1224 21.811 31.1372 21.811 32.355C21.811 33.5437 22.7678 34.5876 24.0436 34.5876C25.2323 34.5876 26.2472 33.5437 26.2472 32.355C26.2472 31.1372 25.2322 30.1224 24.0436 30.1224Z" fill="white"/>
</svg>
