<svg width="41" height="41" viewBox="0 0 41 41" fill="none" xmlns="http://www.w3.org/2000/svg">
<path d="M41 20.5C41 31.8211 31.8211 41 20.5 41C9.17887 41 0 31.8211 0 20.5C0 9.17887 9.17887 0 20.5 0C31.8211 0 41 9.17887 41 20.5Z" fill="url(#paint0_linear_763_27)"/>
<path d="M17.3625 29.7875L9.16248 21.5875C8.56183 20.9869 8.56183 20.0131 9.16248 19.4135L10.6118 17.9641C11.2125 17.3635 12.1862 17.3635 12.7859 17.9641L18.45 23.6273L29.2381 12.8391C29.8388 12.2385 30.8125 12.2385 31.4122 12.8391L32.8615 14.2885C33.4622 14.8891 33.4622 15.8629 32.8615 16.4625L19.5365 29.7875C18.9369 30.3871 17.9631 30.3871 17.3625 29.7875Z" fill="white"/>
<defs>
<linearGradient id="paint0_linear_763_27" x1="6.00445" y1="6.00445" x2="34.9955" y2="34.9955" gradientUnits="userSpaceOnUse">
<stop stop-color="#21AD64"/>
<stop offset="1" stop-color="#088242"/>
</linearGradient>
</defs>
</svg>
