<svg width="41" height="41" viewBox="0 0 41 41" fill="none" xmlns="http://www.w3.org/2000/svg">
<circle cx="20.5" cy="20.5" r="20.5" fill="#FFA200"/>
<path d="M21.0207 5C19.3241 5 18 5.85605 18 7.37365C18 12.0039 18.5792 18.6576 18.5792 23.288C18.5794 24.4942 19.6967 25 21.0208 25C22.0139 25 23.4208 24.4942 23.4208 23.288C23.4208 18.6577 24 12.0041 24 7.37365C24 5.85618 22.6346 5 21.0207 5Z" fill="white"/>
<path d="M21.0196 28C19.2942 28 18 29.3636 18 31C18 32.5974 19.2941 34 21.0196 34C22.6274 34 24 32.5974 24 31C24 29.3636 22.6273 28 21.0196 28Z" fill="white"/>
</svg>
